<svg width="24" height="24" viewBox="0 0 24 24" fill="none" xmlns="http://www.w3.org/2000/svg">
<g clip-path="url(#clip0_5_154)">
<path d="M21.4875 3.01407C18.7781 0.735942 14.5922 1.07813 12 3.71719C9.40782 1.07813 5.22188 0.731255 2.51251 3.01407C-1.01249 5.98126 -0.49687 10.8188 2.01563 13.3828L10.2375 21.7594C10.7063 22.2375 11.3344 22.5047 12 22.5047C12.6703 22.5047 13.2938 22.2422 13.7625 21.7641L21.9844 13.3875C24.4922 10.8234 25.0172 5.98594 21.4875 3.01407ZM20.3813 11.8031L12.1594 20.1797C12.0469 20.2922 11.9531 20.2922 11.8406 20.1797L3.61876 11.8031C1.90782 10.0594 1.56094 6.75938 3.96094 4.73907C5.78438 3.20625 8.59688 3.43594 10.3594 5.23125L12 6.90469L13.6406 5.23125C15.4125 3.42657 18.225 3.20625 20.0391 4.73438C22.4344 6.75469 22.0781 10.0734 20.3813 11.8031Z" fill="#262626"/>
</g>
<defs>
<clipPath id="clip0_5_154">
<rect width="24" height="24" fill="white"/>
</clipPath>
</defs>
</svg>
